<svg width="56" height="57" viewBox="0 0 56 57" fill="none" xmlns="http://www.w3.org/2000/svg">
<path d="M25.2039 42.5876C23.2828 44.3629 20.6256 44.7605 18.2688 43.6258C17.4168 43.2154 16.6978 42.6489 16.135 41.9704L12.9259 49.0682C12.7799 49.3911 12.9429 49.6345 13.0197 49.7241C13.0965 49.8137 13.3122 50.0118 13.6535 49.9169L15.9897 49.2667C16.2559 49.1927 16.5251 49.1569 16.7904 49.1569C17.9099 49.1569 18.9636 49.7906 19.4709 50.8405L20.526 53.024C20.6801 53.343 20.9691 53.3749 21.0894 53.3725C21.2074 53.371 21.4977 53.3327 21.6436 53.0097L26.7481 41.7192C26.1872 41.8806 25.6561 42.1697 25.2039 42.5876Z" fill="#00BDFF"/>
<path d="M43.0762 49.0682L39.8672 41.9704C39.3043 42.649 38.5853 43.2155 37.7333 43.6258C35.3765 44.7605 32.7194 44.3629 30.7982 42.5876C30.3461 42.1697 29.8149 41.8806 29.2539 41.7192L34.3583 53.0097C34.5043 53.3327 34.7946 53.371 34.9125 53.3725C35.0328 53.3749 35.3219 53.343 35.476 53.024L36.5311 50.8405C37.0383 49.7906 38.092 49.1569 39.2115 49.1569C39.4769 49.1569 39.7461 49.1927 40.0122 49.2667L42.3484 49.9169C42.6897 50.0119 42.9055 49.8138 42.9822 49.7241C43.0592 49.6344 43.2223 49.391 43.0762 49.0682Z" fill="#00BDFF"/>
<path d="M45.5974 24.0917C42.9322 22.2668 42.1052 18.6434 43.7147 15.8429C44.6821 14.1594 44.1787 12.4958 43.3849 11.5003C42.591 10.505 41.081 9.64407 39.2247 10.2124C36.1366 11.1583 32.7878 9.5459 31.6016 6.54136C30.8886 4.73532 29.274 4.0918 28.0009 4.0918C26.7278 4.0918 25.1132 4.73532 24.4001 6.54146C23.214 9.54609 19.8654 11.1583 16.7771 10.2125C14.9205 9.64427 13.4108 10.505 12.6168 11.5004C11.8231 12.4959 11.3196 14.1593 12.287 15.843C13.8965 18.6434 13.0695 22.2669 10.4043 24.0918C8.80216 25.1889 8.53411 26.9061 8.81727 28.1474C9.10044 29.3886 10.0872 30.8194 12.0067 31.1126C15.1997 31.6004 17.5168 34.506 17.2821 37.7276C17.1408 39.6643 18.3163 40.9446 19.4633 41.497C20.6104 42.0494 22.3442 42.1703 23.7703 40.8524C24.9563 39.7564 26.4789 39.2081 28.0008 39.2081C29.5232 39.2081 31.045 39.7561 32.2311 40.8524C33.6574 42.1704 35.3913 42.0495 36.5383 41.497C37.6853 40.9447 38.8607 39.6644 38.7195 37.7277C38.4848 34.5061 40.8019 31.6005 43.9949 31.1126C45.9144 30.8194 46.901 29.3885 47.1843 28.1474C47.4676 26.9059 47.1994 25.1887 45.5974 24.0917ZM28.0009 36.4244C21.0155 36.4244 15.3325 30.7414 15.3325 23.7561C15.3325 16.7707 21.0154 11.0876 28.0009 11.0876C34.9863 11.0876 40.6692 16.7706 40.6692 23.756C40.6691 30.7413 34.9862 36.4244 28.0009 36.4244Z" fill="#00BDFF"/>
<path d="M28.0017 13.4502C22.3187 13.4502 17.6953 18.0737 17.6953 23.7565C17.6953 29.4394 22.3186 34.0629 28.0017 34.0629C33.6848 34.0629 38.308 29.4394 38.308 23.7565C38.308 18.0737 33.6847 13.4502 28.0017 13.4502ZM33.2834 22.7573L26.8691 27.4422C26.6655 27.5909 26.4212 27.6696 26.1725 27.6696C26.1084 27.6696 26.044 27.6644 25.9799 27.6538C25.6672 27.6021 25.3883 27.4268 25.206 27.1673L23.2873 24.4356C22.9124 23.9017 23.0413 23.1651 23.575 22.7902C24.1088 22.4153 24.8453 22.5441 25.2203 23.0779L26.4475 24.8252L31.8903 20.8499C32.417 20.4654 33.156 20.5801 33.5406 21.107C33.9253 21.6336 33.8101 22.3725 33.2834 22.7573Z" fill="#00BDFF"/>
</svg>
