<svg width="49" height="49" viewBox="0 0 49 49" fill="none" xmlns="http://www.w3.org/2000/svg">
<rect x="0.667969" y="0.730957" width="48" height="48" rx="8" fill="#EEF8FF"/>
<path d="M23.2699 32.6593C22.3094 33.5469 20.9808 33.7458 19.8024 33.1784C19.3764 32.9732 19.0169 32.6899 18.7354 32.3507L17.1309 35.8996C17.0579 36.061 17.1394 36.1827 17.1778 36.2276C17.2162 36.2723 17.3241 36.3714 17.4947 36.3239L18.6628 35.9988C18.7959 35.9618 18.9305 35.944 19.0632 35.944C19.6229 35.944 20.1497 36.2608 20.4034 36.7858L20.931 37.8775C21.008 38.037 21.1525 38.0529 21.2127 38.0517C21.2717 38.051 21.4168 38.0318 21.4898 37.8703L24.042 32.2251C23.7616 32.3058 23.496 32.4503 23.2699 32.6593Z" fill="#00BDFF"/>
<path d="M32.208 35.8996L30.6035 32.3507C30.3221 32.69 29.9626 32.9732 29.5366 33.1784C28.3581 33.7458 27.0296 33.5469 26.069 32.6593C25.8429 32.4503 25.5774 32.3058 25.2969 32.2251L27.8491 37.8703C27.9221 38.0319 28.0672 38.051 28.1262 38.0517C28.1863 38.0529 28.3309 38.037 28.4079 37.8775L28.9355 36.7858C29.1891 36.2608 29.7159 35.944 30.2757 35.944C30.4084 35.944 30.543 35.9618 30.676 35.9988L31.8441 36.3239C32.0148 36.3714 32.1227 36.2724 32.161 36.2276C32.1995 36.1827 32.2811 36.061 32.208 35.8996Z" fill="#00BDFF"/>
<path d="M33.4667 23.4113C32.1341 22.4989 31.7206 20.6872 32.5253 19.2869C33.009 18.4452 32.7573 17.6134 32.3604 17.1156C31.9635 16.618 31.2085 16.1875 30.2803 16.4717C28.7363 16.9446 27.0618 16.1384 26.4688 14.6362C26.1122 13.7331 25.3049 13.4114 24.6684 13.4114C24.0318 13.4114 23.2246 13.7331 22.868 14.6362C22.275 16.1385 20.6007 16.9446 19.0565 16.4717C18.1282 16.1876 17.3734 16.618 16.9764 17.1157C16.5795 17.6134 16.3278 18.4451 16.8115 19.287C17.6162 20.6872 17.2027 22.4989 15.8701 23.4114C15.0691 23.9599 14.935 24.8185 15.0766 25.4392C15.2182 26.0598 15.7116 26.7752 16.6713 26.9218C18.2678 27.1657 19.4264 28.6185 19.309 30.2293C19.2384 31.1976 19.8261 31.8378 20.3996 32.114C20.9732 32.3902 21.8401 32.4506 22.5531 31.7917C23.1461 31.2437 23.9074 30.9695 24.6684 30.9695C25.4296 30.9695 26.1904 31.2435 26.7835 31.7917C27.4967 32.4507 28.3636 32.3902 28.9371 32.114C29.5106 31.8378 30.0983 31.1977 30.0277 30.2293C29.9104 28.6185 31.0689 27.1657 32.6654 26.9218C33.6252 26.7752 34.1185 26.0597 34.2601 25.4392C34.4018 24.8184 34.2677 23.9598 33.4667 23.4113ZM24.6684 29.5777C21.1757 29.5777 18.3342 26.7362 18.3342 23.2435C18.3342 19.7508 21.1757 16.9093 24.6684 16.9093C28.1611 16.9093 31.0026 19.7508 31.0026 23.2435C31.0025 26.7361 28.1611 29.5777 24.6684 29.5777Z" fill="#00BDFF"/>
<path d="M24.6688 18.0906C21.8273 18.0906 19.5156 20.4023 19.5156 23.2437C19.5156 26.0852 21.8273 28.3969 24.6688 28.3969C27.5103 28.3969 29.822 26.0852 29.822 23.2437C29.822 20.4023 27.5103 18.0906 24.6688 18.0906ZM27.3097 22.7441L24.1025 25.0866C24.0007 25.1609 23.8786 25.2003 23.7542 25.2003C23.7222 25.2003 23.69 25.1977 23.6579 25.1924C23.5016 25.1665 23.3621 25.0789 23.271 24.9491L22.3116 23.5833C22.1242 23.3163 22.1886 22.948 22.4555 22.7606C22.7224 22.5731 23.0906 22.6375 23.2781 22.9044L23.8917 23.7781L26.6131 21.7904C26.8765 21.5982 27.2459 21.6555 27.4383 21.919C27.6306 22.1823 27.573 22.5517 27.3097 22.7441Z" fill="#00BDFF"/>
</svg>
