<svg width="84" height="58" viewBox="0 0 84 58" fill="none" xmlns="http://www.w3.org/2000/svg">
<path d="M2.61076 32.7885C3.42436 33.4346 4.27301 33.7825 5.29548 33.7825C6.48301 33.7825 7.19436 33.2862 7.19436 32.5018C7.19436 31.7174 6.64515 31.2576 4.97267 30.9229C2.1638 30.3495 0.765932 28.932 0.765932 26.7928C0.765932 24.6303 2.62537 23.0382 5.44009 23.0382C8.00065 23.0382 9.622 24.2694 10.272 26.2209C10.4473 26.7564 10.1347 27.1042 9.57234 27.1042H7.91593C7.45582 27.1042 7.24256 26.8801 7.00739 26.4828C6.71526 26.0215 6.24492 25.7727 5.60807 25.7727C4.79593 25.7727 4.1211 26.1831 4.1211 26.8437C4.1211 27.5044 4.73312 28.0865 6.18357 28.3849C9.17942 28.9946 10.551 30.3626 10.551 32.5382C10.551 34.8157 8.64189 36.5198 5.43863 36.5198C3.72964 36.5198 2.30548 35.7922 1.0829 34.4039C0.745482 34.0328 0.783461 33.6471 1.10919 33.2862L1.49481 32.8496C1.83222 32.464 2.20616 32.4523 2.61661 32.7885" fill="#F6F6F6"/>
<path d="M18.331 23.0382C22.4515 23.0382 25.5102 26.0099 25.5102 29.779C25.5102 33.5482 22.4515 36.5184 18.331 36.5184C14.2104 36.5184 11.1518 33.5467 11.1518 29.779C11.1518 26.0113 14.2192 23.0382 18.331 23.0382ZM18.331 33.4972C19.0695 33.4975 19.7916 33.2796 20.4057 32.8709C21.0199 32.4623 21.4987 31.8814 21.7815 31.2017C22.0642 30.5219 22.1383 29.7739 21.9943 29.0522C21.8503 28.3306 21.4946 27.6677 20.9724 27.1474C20.4502 26.6271 19.7848 26.2728 19.0605 26.1293C18.3361 25.9858 17.5853 26.0596 16.903 26.3413C16.2208 26.623 15.6377 27.1 15.2276 27.7119C14.8174 28.3238 14.5987 29.0432 14.599 29.779C14.5911 30.2695 14.6822 30.7565 14.867 31.2112C15.0517 31.6658 15.3263 32.0789 15.6745 32.4257C16.0226 32.7725 16.4372 33.0461 16.8935 33.2302C17.3499 33.4143 17.8387 33.5051 18.331 33.4972Z" fill="#F6F6F6"/>
<path d="M27.2511 18.0624H29.0857C29.5984 18.0624 29.8847 18.3535 29.8847 18.8599V35.4325C29.8847 35.9433 29.5926 36.23 29.0857 36.23H27.2511C26.7384 36.23 26.4521 35.9389 26.4521 35.4325V18.8599C26.4521 18.3491 26.7443 18.0624 27.2511 18.0624Z" fill="#F6F6F6"/>
<path d="M37.0958 23.0382C38.9056 23.0382 40.3677 23.7324 41.4034 24.8777V24.1326C41.4034 23.6218 41.6955 23.3365 42.2009 23.3365H43.999C44.5117 23.3365 44.798 23.6276 44.798 24.1326V35.4313C44.798 35.9421 44.5058 36.2288 43.999 36.2288H42.195C41.6838 36.2288 41.3975 35.9377 41.3975 35.4313V34.6876C40.3619 35.83 38.8998 36.5256 37.09 36.5256C33.4821 36.5256 30.8471 33.554 30.8471 29.7863C30.8471 26.0186 33.4763 23.0455 37.09 23.0455L37.0958 23.0382ZM37.8276 33.5045C39.8229 33.5045 41.3975 31.8892 41.3975 29.7863C41.3975 27.6834 39.8288 26.0594 37.8335 26.0594C35.8382 26.0594 34.2986 27.6878 34.2986 29.779C34.2986 31.8702 35.8455 33.4972 37.8335 33.4972" fill="#F6F6F6"/>
<path d="M50.0459 29.3937V35.4316C50.0459 35.9424 49.7537 36.2291 49.2469 36.2291H47.4108C46.8996 36.2291 46.6133 35.9381 46.6133 35.4316V24.1388C46.6133 23.6294 46.9054 23.3427 47.4108 23.3427H49.2469C49.7596 23.3427 50.0459 23.6338 50.0459 24.1388V24.9231C50.8712 23.8273 52.0178 23.0444 53.5033 23.0444C53.6756 23.0419 53.8476 23.059 54.016 23.0953C54.4776 23.1812 54.6645 23.5552 54.628 24.0151L54.5141 25.4572C54.4659 25.9928 54.1402 26.1921 53.5909 26.1034C53.4175 26.0806 53.2429 26.0684 53.068 26.067C51.4189 26.067 50.0459 27.3986 50.0459 29.401" fill="#F6F6F6"/>
<path d="M2.58471 48.6908C3.39246 49.3355 4.23965 49.6847 5.26066 49.6847C6.44381 49.6847 7.15223 49.1885 7.15223 48.407C7.15223 47.6255 6.60594 47.1657 4.93785 46.8309C2.13482 46.2605 0.741333 44.846 0.741333 42.7125C0.741333 40.5558 2.59639 38.9681 5.39796 38.9681C7.94976 38.9681 9.56819 40.1949 10.2182 42.1421C10.3935 42.6762 10.0823 43.0225 9.52291 43.0225H7.86942C7.40785 43.0225 7.19751 42.7999 6.96088 42.4026C6.66875 41.9442 6.20133 41.6968 5.56594 41.6968C4.75673 41.6968 4.08482 42.1042 4.08482 42.762C4.08482 43.4445 4.69538 44.0034 6.13852 44.3002C9.12706 44.9085 10.4972 46.2721 10.4972 48.4434C10.4972 50.7151 8.5983 52.4133 5.39212 52.4133C3.68605 52.4133 2.26628 51.6857 1.04661 50.3047C0.712119 49.9321 0.75448 49.5479 1.07291 49.1885L1.45706 48.7519C1.79302 48.3677 2.16695 48.3546 2.57886 48.6893" fill="#F6F6F6"/>
<path d="M17.3287 38.9666C19.1341 38.9666 20.5904 39.6623 21.6246 40.8017V40.0581C21.6246 39.5502 21.9167 39.2635 22.4206 39.2635H24.2129C24.7241 39.2635 25.0104 39.5546 25.0104 40.0581V57.0847C25.0104 57.5926 24.7183 57.8778 24.2129 57.8778H22.4206C21.9108 57.8778 21.6246 57.5868 21.6246 57.0847V50.5782C20.5904 51.7177 19.1341 52.4148 17.3287 52.4148C13.7296 52.4148 11.1033 49.4475 11.1033 45.69C11.1033 41.9325 13.7325 38.9666 17.3287 38.9666ZM18.059 49.3995C20.0514 49.3995 21.6216 47.7856 21.6216 45.69C21.6216 43.5944 20.0543 41.9805 18.062 41.9805C16.0696 41.9805 14.5403 43.6046 14.5403 45.6885C14.5403 47.7725 16.0828 49.4024 18.062 49.4024" fill="#F6F6F6"/>
<path d="M26.5662 47.2197V40.0583C26.5662 39.5504 26.8583 39.2652 27.3622 39.2652H29.1954C29.7066 39.2652 29.9929 39.5563 29.9929 40.0583V46.8573C29.9929 48.282 31.1132 49.3997 32.4322 49.3997C34.0521 49.3997 35.3536 48.1351 35.3536 46.1122V40.0583C35.3536 39.5504 35.6457 39.2652 36.1496 39.2652H37.9799C38.4911 39.2652 38.7774 39.5563 38.7774 40.0583V51.3221C38.7774 51.83 38.4853 52.1167 37.9799 52.1167H36.1511C35.6413 52.1167 35.355 51.8256 35.355 51.3221V50.689C34.9088 51.2301 34.3475 51.6656 33.7117 51.9641C33.0759 52.2626 32.3814 52.4166 31.6785 52.415C28.6535 52.415 26.5662 50.3296 26.5662 47.2168" fill="#F6F6F6"/>
<path d="M45.9727 38.9666C47.7767 38.9666 49.2359 39.6623 50.2686 40.8017V40.0581C50.2686 39.5502 50.5607 39.2635 51.0661 39.2635H52.8583C53.3681 39.2635 53.6544 39.5546 53.6544 40.0581V51.3204C53.6544 51.8298 53.3623 52.115 52.8583 52.115H51.0661C50.5549 52.115 50.2686 51.8239 50.2686 51.3204V50.5782C49.2359 51.7177 47.7767 52.4148 45.9727 52.4148C42.3751 52.4148 39.7488 49.4475 39.7488 45.69C39.7488 41.9325 42.378 38.9666 45.9727 38.9666ZM46.7031 49.3995C48.694 49.3995 50.2642 47.7856 50.2642 45.69C50.2642 43.5944 48.6983 41.9805 46.7074 41.9805C44.7165 41.9805 43.1858 43.6046 43.1858 45.6885C43.1858 47.7725 44.7268 49.4024 46.7074 49.4024" fill="#F6F6F6"/>
<path d="M58.8934 45.3061V51.3207C58.8934 51.8301 58.6012 52.1153 58.0973 52.1153H56.2656C55.7558 52.1153 55.4695 51.8242 55.4695 51.3207V40.0584C55.4695 39.5491 55.7617 39.2638 56.2656 39.2638H58.0973C58.6085 39.2638 58.8934 39.5549 58.8934 40.0584V40.8399C59.7157 39.7484 60.8609 38.9684 62.3435 38.9684C62.5142 38.9658 62.6846 38.9819 62.8518 39.0164C63.3148 39.1038 63.5003 39.4763 63.4624 39.9347L63.3513 41.374C63.3017 41.9066 62.9774 42.1016 62.4297 42.0187C62.2589 41.9942 62.0866 41.9816 61.914 41.9808C60.2708 41.9808 58.9007 43.308 58.9007 45.3046" fill="#F6F6F6"/>
<path d="M70.3221 49.6934C71.8047 49.6934 72.9513 49.2728 73.9825 48.4651C74.3813 48.1551 74.7669 48.1741 75.1146 48.5146L75.7251 49.1229C76.0874 49.4823 76.1137 49.8927 75.75 50.2522C75.0372 50.9535 74.1909 51.5058 73.2607 51.8764C72.3306 52.247 71.3354 52.4286 70.3338 52.4104C65.9269 52.4104 63.0012 49.4445 63.0012 45.687C63.0012 41.9295 66.0146 38.9637 70.0124 38.9637C73.9563 38.9637 76.7739 41.8742 76.7739 45.4629C76.7739 45.6259 76.7607 45.8122 76.7491 45.9853C76.6979 46.4685 76.3737 46.7028 75.8887 46.7028H66.463C66.7624 48.4913 68.2552 49.6934 70.3221 49.6934ZM66.5506 44.274H73.2464C72.8695 42.7503 71.6542 41.6894 69.9861 41.6894C69.2069 41.6847 68.4478 41.9363 67.8267 42.4052C67.2055 42.8741 66.757 43.534 66.5506 44.2827" fill="#F6F6F6"/>
<path d="M62.2415 5.21127V2.01987C62.2424 1.86355 62.2061 1.70925 62.1355 1.56963C62.0649 1.43002 61.9621 1.30908 61.8355 1.21675C61.7089 1.12442 61.5621 1.06333 61.4072 1.03851C61.2523 1.01368 61.0937 1.02583 60.9444 1.07395C59.4138 1.5791 57.9615 2.29472 56.6296 3.20009C56.497 3.29153 56.3889 3.41383 56.3146 3.55636C56.2402 3.69888 56.202 3.85734 56.2031 4.01795V5.21127C56.2031 5.47386 56.3076 5.72571 56.4939 5.91152C56.6801 6.09734 56.9327 6.20192 57.1963 6.20231H61.2453C61.376 6.2025 61.5056 6.17701 61.6264 6.12729C61.7473 6.07757 61.8571 6.0046 61.9496 5.91255C62.0421 5.82051 62.1155 5.71119 62.1656 5.59086C62.2157 5.47053 62.2415 5.34154 62.2415 5.21127Z" fill="#F6F6F6"/>
<path d="M69.4757 5.21184V1.30445C69.4741 1.06054 69.3831 0.825609 69.2198 0.643884C69.0565 0.462158 68.8322 0.346178 68.589 0.31778C67.1717 0.143097 65.7382 0.143097 64.3209 0.31778C64.0779 0.346206 63.8538 0.46224 63.6907 0.643998C63.5276 0.825756 63.437 1.06068 63.4358 1.30445V5.21184C63.4358 5.47443 63.5404 5.72628 63.7266 5.9121C63.9128 6.09791 64.1655 6.20249 64.429 6.20288H68.478C68.6088 6.20307 68.7384 6.17759 68.8594 6.12789C68.9803 6.07819 69.0902 6.00524 69.1829 5.91321C69.2755 5.82119 69.349 5.71188 69.3993 5.59154C69.4495 5.4712 69.4755 5.34218 69.4757 5.21184Z" fill="#F6F6F6"/>
<path d="M76.7085 5.21127V4.01795C76.7095 3.85734 76.6713 3.69888 76.5969 3.55636C76.5226 3.41383 76.4145 3.29153 76.2819 3.20009C74.9502 2.29444 73.4978 1.5788 71.9671 1.07395C71.8178 1.02583 71.6592 1.01368 71.5043 1.03851C71.3494 1.06333 71.2026 1.12442 71.076 1.21675C70.9494 1.30908 70.8466 1.43002 70.776 1.56963C70.7054 1.70925 70.6691 1.86355 70.67 2.01987V5.21127C70.6698 5.34135 70.6954 5.47018 70.7452 5.59041C70.795 5.71064 70.8682 5.81991 70.9604 5.91195C71.0527 6.004 71.1622 6.07702 71.2828 6.12684C71.4034 6.17666 71.5327 6.20231 71.6633 6.20231H75.7123C75.843 6.2025 75.9725 6.17701 76.0934 6.12729C76.2142 6.07757 76.3241 6.0046 76.4166 5.91255C76.5091 5.82051 76.5825 5.71119 76.6326 5.59086C76.6827 5.47053 76.7085 5.34154 76.7085 5.21127Z" fill="#F6F6F6"/>
<path d="M54.0131 7.39349H52.8153C52.6539 7.39254 52.4947 7.43073 52.3514 7.50476C52.2082 7.5788 52.0851 7.68645 51.993 7.81843C51.0852 9.1462 50.3665 10.5929 49.8574 12.1173C49.8097 12.2662 49.7981 12.4243 49.8234 12.5786C49.8488 12.7329 49.9104 12.879 50.0033 13.0051C50.0962 13.1311 50.2177 13.2334 50.3578 13.3037C50.498 13.374 50.6529 13.4103 50.8098 13.4096H54.0131C54.1437 13.4098 54.2732 13.3843 54.394 13.3345C54.5147 13.2848 54.6245 13.2118 54.7169 13.1197C54.8093 13.0277 54.8825 12.9183 54.9325 12.798C54.9824 12.6777 55.008 12.5487 55.0078 12.4185V8.38453C55.0074 8.12181 54.9025 7.86996 54.716 7.68419C54.5295 7.49841 54.2768 7.39388 54.0131 7.39349Z" fill="#F6F6F6"/>
<path d="M57.1978 7.39348H61.2467C61.5106 7.39348 61.7636 7.49789 61.9501 7.68374C62.1367 7.8696 62.2415 8.12167 62.2415 8.38451V12.4185C62.2416 12.5487 62.2161 12.6777 62.1661 12.798C62.1162 12.9183 62.0429 13.0276 61.9505 13.1197C61.8581 13.2118 61.7484 13.2848 61.6276 13.3345C61.5069 13.3842 61.3774 13.4097 61.2467 13.4096H57.1978C57.0671 13.4097 56.9376 13.3842 56.8169 13.3345C56.6961 13.2848 56.5864 13.2118 56.4939 13.1197C56.4015 13.0276 56.3283 12.9183 56.2784 12.798C56.2284 12.6777 56.2028 12.5487 56.203 12.4185V8.38451C56.2034 8.12179 56.3083 7.86994 56.4948 7.68417C56.6813 7.4984 56.9341 7.39386 57.1978 7.39348Z" fill="#F6F6F6"/>
<path d="M64.4305 7.39348H68.4868C68.7506 7.39348 69.0036 7.49789 69.1902 7.68374C69.3767 7.8696 69.4815 8.12167 69.4815 8.38451V12.4185C69.4817 12.5487 69.4561 12.6777 69.4062 12.798C69.3563 12.9183 69.283 13.0276 69.1906 13.1197C69.0982 13.2118 68.9884 13.2848 68.8677 13.3345C68.7469 13.3842 68.6175 13.4097 68.4868 13.4096H64.4305C64.2998 13.4097 64.1704 13.3842 64.0496 13.3345C63.9288 13.2848 63.8191 13.2118 63.7267 13.1197C63.6343 13.0276 63.561 12.9183 63.5111 12.798C63.4612 12.6777 63.4356 12.5487 63.4358 12.4185V8.38451C63.4362 8.12179 63.5411 7.86994 63.7276 7.68417C63.914 7.4984 64.1668 7.39386 64.4305 7.39348Z" fill="#F6F6F6"/>
<path d="M54.0136 14.6002H50.0916C49.8467 14.6017 49.6107 14.6923 49.428 14.8549C49.2454 15.0176 49.1287 15.2412 49.0999 15.4835C48.9261 16.8952 48.9261 18.3227 49.0999 19.7344C49.1287 19.9766 49.2455 20.2 49.4282 20.3624C49.6108 20.5248 49.8468 20.6151 50.0916 20.6163H54.0136C54.1442 20.6165 54.2737 20.5909 54.3944 20.5412C54.5152 20.4915 54.625 20.4185 54.7174 20.3264C54.8098 20.2344 54.883 20.125 54.9329 20.0047C54.9829 19.8844 55.0085 19.7554 55.0083 19.6252V15.5912C55.0083 15.3284 54.9035 15.0763 54.7169 14.8905C54.5304 14.7046 54.2774 14.6002 54.0136 14.6002Z" fill="#F6F6F6"/>
<path d="M57.1978 14.6002H61.2467C61.3774 14.6 61.5069 14.6255 61.6276 14.6752C61.7484 14.725 61.8581 14.798 61.9505 14.89C62.0429 14.9821 62.1162 15.0914 62.1661 15.2117C62.2161 15.3321 62.2416 15.461 62.2415 15.5912V19.6252C62.2416 19.7554 62.2161 19.8844 62.1661 20.0047C62.1162 20.125 62.0429 20.2344 61.9505 20.3264C61.8581 20.4185 61.7484 20.4915 61.6276 20.5412C61.5069 20.591 61.3774 20.6165 61.2467 20.6163H57.1978C57.0671 20.6165 56.9376 20.591 56.8169 20.5412C56.6961 20.4915 56.5864 20.4185 56.4939 20.3264C56.4015 20.2344 56.3283 20.125 56.2784 20.0047C56.2284 19.8844 56.2028 19.7554 56.203 19.6252V15.5912C56.203 15.3284 56.3078 15.0763 56.4944 14.8905C56.6809 14.7046 56.9339 14.6002 57.1978 14.6002Z" fill="#F6F6F6"/>
<path d="M64.4305 14.6002H68.4868C68.6175 14.6 68.7469 14.6255 68.8677 14.6752C68.9884 14.725 69.0982 14.798 69.1906 14.89C69.283 14.9821 69.3563 15.0914 69.4062 15.2117C69.4561 15.3321 69.4817 15.461 69.4815 15.5912V19.6252C69.4817 19.7554 69.4561 19.8844 69.4062 20.0047C69.3563 20.125 69.283 20.2344 69.1906 20.3264C69.0982 20.4185 68.9884 20.4915 68.8677 20.5412C68.7469 20.591 68.6175 20.6165 68.4868 20.6163H64.4305C64.2998 20.6165 64.1704 20.591 64.0496 20.5412C63.9288 20.4915 63.8191 20.4185 63.7267 20.3264C63.6343 20.2344 63.561 20.125 63.5111 20.0047C63.4612 19.8844 63.4356 19.7554 63.4358 19.6252V15.5912C63.4358 15.3284 63.5406 15.0763 63.7271 14.8905C63.9137 14.7046 64.1667 14.6002 64.4305 14.6002Z" fill="#F6F6F6"/>
<path d="M71.6647 14.6002H75.7137C75.8445 14.6 75.974 14.6255 76.0948 14.6752C76.2157 14.7249 76.3255 14.7979 76.418 14.8899C76.5106 14.982 76.584 15.0913 76.634 15.2116C76.6841 15.332 76.7099 15.461 76.7099 15.5912V19.6252C76.7099 19.7555 76.6841 19.8845 76.634 20.0048C76.584 20.1251 76.5106 20.2345 76.418 20.3265C76.3255 20.4186 76.2157 20.4915 76.0948 20.5412C75.974 20.591 75.8445 20.6165 75.7137 20.6163H71.6647C71.534 20.6165 71.4046 20.591 71.2838 20.5412C71.1631 20.4915 71.0533 20.4185 70.9609 20.3264C70.8685 20.2344 70.7953 20.125 70.7453 20.0047C70.6954 19.8844 70.6698 19.7554 70.67 19.6252V15.5912C70.67 15.3284 70.7748 15.0763 70.9614 14.8905C71.1479 14.7046 71.4009 14.6002 71.6647 14.6002Z" fill="#F6F6F6"/>
<path d="M78.8975 20.6163H82.8179C83.0631 20.6151 83.2995 20.5247 83.4824 20.362C83.6654 20.1993 83.7823 19.9755 83.8112 19.7329C83.9849 18.3213 83.9849 16.8937 83.8112 15.4821C83.782 15.2397 83.6649 15.0163 83.482 14.8539C83.2991 14.6915 83.0629 14.6013 82.8179 14.6002H78.8975C78.6337 14.6002 78.3806 14.7046 78.1941 14.8905C78.0075 15.0763 77.9028 15.3284 77.9028 15.5912V19.6252C77.9028 19.8881 78.0075 20.1401 78.1941 20.326C78.3806 20.5118 78.6337 20.6163 78.8975 20.6163Z" fill="#F6F6F6"/>
<path d="M64.4305 21.8054H68.4868C68.6175 21.8052 68.7469 21.8307 68.8677 21.8805C68.9884 21.9302 69.0982 22.0032 69.1906 22.0953C69.283 22.1873 69.3563 22.2966 69.4062 22.417C69.4561 22.5373 69.4817 22.6663 69.4815 22.7964V26.8305C69.4817 26.9606 69.4561 27.0896 69.4062 27.2099C69.3563 27.3303 69.283 27.4396 69.1906 27.5316C69.0982 27.6237 68.9884 27.6967 68.8677 27.7464C68.7469 27.7962 68.6175 27.8217 68.4868 27.8215H64.4305C64.2998 27.8217 64.1704 27.7962 64.0496 27.7464C63.9288 27.6967 63.8191 27.6237 63.7267 27.5316C63.6343 27.4396 63.561 27.3303 63.5111 27.2099C63.4612 27.0896 63.4356 26.9606 63.4358 26.8305V22.7964C63.4358 22.5336 63.5406 22.2815 63.7271 22.0957C63.9137 21.9098 64.1667 21.8054 64.4305 21.8054Z" fill="#F6F6F6"/>
<path d="M71.6647 21.8054H75.7137C75.8445 21.8052 75.974 21.8307 76.0948 21.8804C76.2157 21.9302 76.3255 22.0031 76.418 22.0952C76.5106 22.1872 76.584 22.2965 76.634 22.4169C76.6841 22.5372 76.7099 22.6662 76.7099 22.7964V26.8305C76.7099 26.9607 76.6841 27.0897 76.634 27.21C76.584 27.3304 76.5106 27.4397 76.418 27.5317C76.3255 27.6238 76.2157 27.6967 76.0948 27.7465C75.974 27.7962 75.8445 27.8217 75.7137 27.8215H71.6647C71.534 27.8217 71.4046 27.7962 71.2838 27.7464C71.1631 27.6967 71.0533 27.6237 70.9609 27.5316C70.8685 27.4396 70.7953 27.3303 70.7453 27.2099C70.6954 27.0896 70.6698 26.9606 70.67 26.8305V22.7964C70.67 22.5336 70.7748 22.2815 70.9614 22.0957C71.1479 21.9098 71.4009 21.8054 71.6647 21.8054Z" fill="#F6F6F6"/>
<path d="M78.8975 27.823H80.0952C80.2566 27.8239 80.4157 27.7855 80.5588 27.7112C80.7018 27.6369 80.8245 27.5289 80.9161 27.3966C81.8239 26.0688 82.5426 24.6221 83.0516 23.0977C83.0996 22.9489 83.1115 22.7908 83.0864 22.6365C83.0613 22.4822 82.9998 22.336 82.907 22.2099C82.8143 22.0838 82.6928 21.9814 82.5527 21.9111C82.4125 21.8408 82.2576 21.8046 82.1007 21.8054H78.8975C78.6339 21.8054 78.3811 21.9096 78.1946 22.0952C78.0081 22.2807 77.9031 22.5324 77.9028 22.795V26.829C77.9026 26.9593 77.9281 27.0884 77.978 27.2089C78.0279 27.3294 78.1011 27.4389 78.1935 27.5312C78.2859 27.6235 78.3956 27.6968 78.5164 27.7468C78.6372 27.7969 78.7667 27.8228 78.8975 27.823Z" fill="#F6F6F6"/>
<path d="M56.2031 30.0032V31.1979C56.2017 31.3582 56.2397 31.5164 56.3138 31.6588C56.3879 31.8011 56.4958 31.9231 56.6281 32.0143C57.9612 32.919 59.4138 33.6351 60.9444 34.1419C61.0936 34.1894 61.252 34.2011 61.4065 34.176C61.5611 34.1509 61.7076 34.0898 61.8339 33.9975C61.9602 33.9053 62.0629 33.7846 62.1334 33.6453C62.204 33.506 62.2406 33.3521 62.24 33.196V30.0032C62.2402 29.8731 62.2147 29.7442 62.1648 29.624C62.115 29.5038 62.0419 29.3945 61.9496 29.3025C61.8574 29.2104 61.7478 29.1374 61.6272 29.0876C61.5066 29.0378 61.3773 29.0121 61.2468 29.0121H57.1978C56.934 29.0121 56.681 29.1165 56.4944 29.3024C56.3079 29.4882 56.2031 29.7403 56.2031 30.0032Z" fill="#F6F6F6"/>
<path d="M63.4358 30.0032V33.9091C63.4372 34.1533 63.5281 34.3886 63.6914 34.5708C63.8546 34.753 64.079 34.8696 64.3224 34.8987C65.7393 35.0718 67.1721 35.0718 68.589 34.8987C68.8323 34.8696 69.0565 34.753 69.2195 34.5707C69.3825 34.3885 69.4731 34.1532 69.4742 33.9091V30.0032C69.4744 29.873 69.4488 29.744 69.3989 29.6237C69.349 29.5034 69.2757 29.394 69.1833 29.302C69.0909 29.2099 68.9811 29.1369 68.8604 29.0872C68.7396 29.0374 68.6102 29.0119 68.4795 29.0121H64.4305C64.1667 29.0121 63.9137 29.1165 63.7271 29.3024C63.5406 29.4882 63.4358 29.7403 63.4358 30.0032Z" fill="#F6F6F6"/>
<path d="M70.67 30.0032V33.196C70.6694 33.3522 70.7059 33.5064 70.7766 33.6458C70.8473 33.7852 70.9501 33.906 71.0766 33.9983C71.2031 34.0906 71.3498 34.1517 71.5045 34.1767C71.6593 34.2016 71.8178 34.1897 71.9671 34.1419C73.4974 33.6354 74.9495 32.9193 76.2819 32.0143C76.4143 31.9231 76.5222 31.8011 76.5963 31.6588C76.6704 31.5164 76.7084 31.3582 76.707 31.1979V30.0032C76.7072 29.8731 76.6816 29.7442 76.6318 29.624C76.582 29.5038 76.5088 29.3945 76.4166 29.3025C76.3243 29.2104 76.2148 29.1374 76.0942 29.0876C75.9736 29.0378 75.8443 29.0121 75.7137 29.0121H71.6647C71.4009 29.0121 71.1479 29.1165 70.9614 29.3024C70.7748 29.4882 70.67 29.7403 70.67 30.0032Z" fill="#F6F6F6"/>
</svg>
