<svg width="258" height="93" viewBox="0 0 258 93" fill="none" xmlns="http://www.w3.org/2000/svg">
<path d="M26.4157 39.8562L20.6863 50.9376V56.4076H16.6546V50.9376L10.9253 39.8562H15.4993L18.7058 46.788L21.8888 39.8562H26.4157Z" fill="#131CA2"/>
<path d="M40.4418 49.6173C40.4418 49.9945 40.4183 50.3875 40.3711 50.7961H31.2466C31.3095 51.6135 31.5689 52.2422 32.0247 52.6823C32.4962 53.1067 33.07 53.3189 33.7458 53.3189C34.7518 53.3189 35.4513 52.8945 35.8442 52.0457H40.1353C39.9153 52.9102 39.5145 53.6883 38.9329 54.3799C38.367 55.0715 37.6518 55.6138 36.7873 56.0067C35.9228 56.3997 34.9562 56.5962 33.8873 56.5962C32.5984 56.5962 31.451 56.3211 30.445 55.771C29.439 55.2208 28.6531 54.4349 28.0873 53.4132C27.5214 52.3915 27.2385 51.1969 27.2385 49.8295C27.2385 48.462 27.5136 47.2674 28.0637 46.2457C28.6295 45.224 29.4155 44.4381 30.4214 43.8879C31.4274 43.3378 32.5827 43.0627 33.8873 43.0627C35.1605 43.0627 36.2922 43.3299 37.2825 43.8644C38.2727 44.3988 39.0429 45.1611 39.5931 46.1514C40.1589 47.1416 40.4418 48.2969 40.4418 49.6173ZM36.3158 48.5563C36.3158 47.8647 36.08 47.3145 35.6085 46.9059C35.1369 46.4972 34.5475 46.2928 33.8402 46.2928C33.1643 46.2928 32.5906 46.4893 32.119 46.8823C31.6632 47.2752 31.3802 47.8332 31.2702 48.5563H36.3158Z" fill="#131CA2"/>
<path d="M41.7672 49.8059C41.7672 48.4541 42.0186 47.2674 42.5216 46.2457C43.0403 45.224 43.7398 44.4381 44.62 43.8879C45.5002 43.3378 46.4826 43.0627 47.5672 43.0627C48.4946 43.0627 49.3041 43.2514 49.9957 43.6286C50.703 44.0058 51.2453 44.501 51.6225 45.114V43.2514H55.6543V56.4076H51.6225V54.5449C51.2296 55.158 50.6794 55.6531 49.9721 56.0303C49.2805 56.4076 48.471 56.5962 47.5436 56.5962C46.4748 56.5962 45.5002 56.3211 44.62 55.771C43.7398 55.2051 43.0403 54.4113 42.5216 53.3896C42.0186 52.3522 41.7672 51.1577 41.7672 49.8059ZM51.6225 49.8295C51.6225 48.8235 51.3396 48.0297 50.7737 47.4481C50.2236 46.8666 49.5477 46.5758 48.7461 46.5758C47.9444 46.5758 47.2607 46.8666 46.6948 47.4481C46.1447 48.014 45.8696 48.7999 45.8696 49.8059C45.8696 50.8118 46.1447 51.6135 46.6948 52.2108C47.2607 52.7924 47.9444 53.0831 48.7461 53.0831C49.5477 53.0831 50.2236 52.7924 50.7737 52.2108C51.3396 51.6292 51.6225 50.8354 51.6225 49.8295Z" fill="#131CA2"/>
<path d="M62.6028 45.4441C63.0743 44.721 63.6638 44.1552 64.3711 43.7465C65.0784 43.3221 65.8643 43.1099 66.7288 43.1099V47.3774H65.6207C64.6147 47.3774 63.8602 47.5975 63.3573 48.0376C62.8543 48.462 62.6028 49.2164 62.6028 50.301V56.4076H58.571V43.2514H62.6028V45.4441Z" fill="#131CA2"/>
<path d="M74.008 56.5962C72.8606 56.5962 71.8389 56.3997 70.9429 56.0067C70.047 55.6138 69.3397 55.0794 68.821 54.4035C68.3023 53.7119 68.0115 52.9417 67.9486 52.0929H71.9332C71.9803 52.5487 72.1925 52.9181 72.5698 53.201C72.947 53.484 73.4107 53.6254 73.9608 53.6254C74.4638 53.6254 74.8489 53.5311 75.1161 53.3425C75.3991 53.1382 75.5405 52.8788 75.5405 52.5644C75.5405 52.1872 75.3441 51.9121 74.9511 51.7392C74.5581 51.5506 73.9215 51.3463 73.0413 51.1262C72.0982 50.9062 71.3123 50.6782 70.6836 50.4425C70.0548 50.191 69.5126 49.8059 69.0567 49.2872C68.6009 48.7528 68.373 48.0376 68.373 47.1416C68.373 46.3872 68.5773 45.7034 68.986 45.0904C69.4104 44.4617 70.0234 43.9665 70.825 43.605C71.6424 43.2435 72.6091 43.0627 73.7251 43.0627C75.3755 43.0627 76.6722 43.4714 77.6153 44.2888C78.5742 45.1061 79.1243 46.1907 79.2658 47.5424H75.5405C75.4777 47.0866 75.2733 46.7251 74.9275 46.4579C74.5974 46.1907 74.1573 46.0571 73.6072 46.0571C73.1356 46.0571 72.7741 46.1514 72.5226 46.34C72.2711 46.5129 72.1454 46.7565 72.1454 47.0709C72.1454 47.4481 72.3419 47.7311 72.7348 47.9197C73.1435 48.1083 73.7722 48.2969 74.621 48.4855C75.5955 48.737 76.3893 48.9885 77.0023 49.24C77.6153 49.4758 78.1498 49.8688 78.6056 50.4189C79.0771 50.9533 79.3208 51.6764 79.3365 52.588C79.3365 53.3582 79.1164 54.0498 78.6763 54.6628C78.2519 55.2601 77.6311 55.7317 76.8137 56.0775C76.0121 56.4233 75.0768 56.5962 74.008 56.5962Z" fill="#131CA2"/>
<path d="M92.7882 56.5962C91.4993 56.5962 90.3361 56.3211 89.2987 55.771C88.277 55.2208 87.4675 54.4349 86.8702 53.4132C86.2886 52.3915 85.9979 51.1969 85.9979 49.8295C85.9979 48.4777 86.2965 47.291 86.8938 46.2693C87.4911 45.2319 88.3084 44.4381 89.3459 43.8879C90.3833 43.3378 91.5464 43.0627 92.8353 43.0627C94.1242 43.0627 95.2874 43.3378 96.3248 43.8879C97.3622 44.4381 98.1795 45.2319 98.7768 46.2693C99.3741 47.291 99.6728 48.4777 99.6728 49.8295C99.6728 51.1812 99.3663 52.3758 98.7533 53.4132C98.156 54.4349 97.3307 55.2208 96.2776 55.771C95.2402 56.3211 94.0771 56.5962 92.7882 56.5962ZM92.7882 53.1067C93.5584 53.1067 94.2107 52.8238 94.7451 52.2579C95.2952 51.6921 95.5703 50.8826 95.5703 49.8295C95.5703 48.7763 95.3031 47.9668 94.7687 47.401C94.25 46.8351 93.6055 46.5522 92.8353 46.5522C92.0494 46.5522 91.3971 46.8351 90.8784 47.401C90.3597 47.9511 90.1003 48.7606 90.1003 49.8295C90.1003 50.8826 90.3518 51.6921 90.8548 52.2579C91.3735 52.8238 92.018 53.1067 92.7882 53.1067Z" fill="#131CA2"/>
<path d="M108.413 46.5993H106.244V56.4076H102.213V46.5993H100.751V43.2514H102.213V42.8741C102.213 41.2551 102.676 40.0291 103.604 39.196C104.531 38.3472 105.891 37.9229 107.682 37.9229C107.981 37.9229 108.201 37.9307 108.343 37.9464V41.3652C107.572 41.318 107.03 41.428 106.716 41.6952C106.401 41.9625 106.244 42.4419 106.244 43.1335V43.2514H108.413V46.5993Z" fill="#131CA2"/>
<path d="M45.4533 35.9229H64.644C65.0615 33.0367 65.6817 30.5837 66.5046 28.5638C68.1749 24.3881 71.6293 22.3003 76.8679 22.3003C82.1065 22.3003 85.5609 24.3881 87.2312 28.5638C88.0541 30.5837 88.6743 33.0367 89.0918 35.9229H108.274C107.25 27.627 104.905 20.7705 101.239 15.3535C96.2279 7.83722 88.1043 4.0791 76.8679 4.0791C65.6315 4.0791 57.47 7.83722 52.3832 15.3535C48.7718 20.7705 46.4619 27.627 45.4533 35.9229Z" fill="#131CA2"/>
<path d="M107.788 59.9229C106.594 66.8242 104.411 72.6184 101.239 77.3055C96.2279 84.8217 88.1043 88.5798 76.8679 88.5798C65.6315 88.5798 57.47 84.8217 52.3832 77.3055C49.2585 72.6184 47.1081 66.8242 45.9319 59.9229H65.0783C65.7285 62.885 66.8873 65.3387 68.5545 67.2838C70.4526 69.3337 73.2237 70.3586 76.8679 70.3586C80.5122 70.3586 83.2453 69.3337 85.0675 67.2838C86.8042 65.3387 88.0006 62.885 88.6567 59.9229H107.788Z" fill="#131CA2"/>
<path d="M31.5454 35.9229H11.2744V23.8946H0V5.78734H31.5454V35.9229Z" fill="#131CA2"/>
<path d="M31.5454 59.9229H11.2744V88.9215H31.5454V59.9229Z" fill="#131CA2"/>
<g clip-path="url(#clip0_2236_1229)">
<path d="M122.517 52.5553C123.867 53.597 125.276 54.1577 126.973 54.1577C128.944 54.1577 130.125 53.3577 130.125 52.0931C130.125 50.8285 129.213 50.0871 126.437 49.5475C121.775 48.6231 119.455 46.3379 119.455 42.8891C119.455 39.4027 122.541 36.8359 127.213 36.8359C131.463 36.8359 134.154 38.8208 135.233 41.967C135.524 42.8304 135.005 43.3911 134.071 43.3911H131.322C130.559 43.3911 130.205 43.0298 129.814 42.3893C129.329 41.6456 128.549 41.2444 127.492 41.2444C126.144 41.2444 125.024 41.906 125.024 42.9712C125.024 44.0363 126.04 44.9748 128.447 45.4558C133.419 46.4388 135.696 48.6442 135.696 52.1518C135.696 55.8235 132.527 58.5709 127.211 58.5709C124.374 58.5709 122.01 57.3978 119.981 55.1596C119.421 54.5613 119.484 53.9395 120.025 53.3577L120.665 52.6538C121.225 52.0321 121.845 52.0133 122.527 52.5553" fill="#131CA2"/>
<path d="M148.607 36.8359C155.446 36.8359 160.523 41.6268 160.523 47.7034C160.523 53.78 155.446 58.5685 148.607 58.5685C141.768 58.5685 136.691 53.7777 136.691 47.7034C136.691 41.6292 141.783 36.8359 148.607 36.8359V36.8359ZM148.607 53.6979C149.833 53.6984 151.031 53.347 152.051 52.6882C153.07 52.0295 153.865 51.0929 154.334 49.997C154.803 48.9012 154.926 47.6952 154.687 46.5317C154.448 45.3682 153.858 44.2995 152.991 43.4607C152.124 42.6219 151.02 42.0507 149.818 41.8194C148.616 41.588 147.369 41.707 146.237 42.1612C145.105 42.6154 144.137 43.3843 143.456 44.3709C142.775 45.3574 142.412 46.5172 142.413 47.7034C142.4 48.4941 142.551 49.2793 142.858 50.0123C143.164 50.7453 143.62 51.4112 144.198 51.9704C144.776 52.5296 145.464 52.9707 146.221 53.2674C146.979 53.5642 147.79 53.7106 148.607 53.6979Z" fill="#131CA2"/>
<path d="M163.412 28.8125H166.457C167.308 28.8125 167.783 29.2817 167.783 30.0982V56.8164C167.783 57.6399 167.298 58.1021 166.457 58.1021H163.412C162.561 58.1021 162.086 57.6329 162.086 56.8164V30.0982C162.086 29.2747 162.571 28.8125 163.412 28.8125" fill="#131CA2"/>
<path d="M179.754 36.8359C182.758 36.8359 185.185 37.9551 186.904 39.8015V38.6003C186.904 37.7768 187.388 37.3169 188.227 37.3169H191.212C192.063 37.3169 192.538 37.7861 192.538 38.6003V56.816C192.538 57.6395 192.053 58.1017 191.212 58.1017H188.218C187.369 58.1017 186.894 57.6324 186.894 56.816V55.6171C185.175 57.4588 182.748 58.5803 179.744 58.5803C173.756 58.5803 169.383 53.7894 169.383 47.7151C169.383 41.6409 173.747 36.8477 179.744 36.8477L179.754 36.8359ZM180.969 53.7096C184.28 53.7096 186.894 51.1054 186.894 47.7151C186.894 44.3249 184.29 41.7066 180.978 41.7066C177.667 41.7066 175.112 44.332 175.112 47.7034C175.112 51.0749 177.679 53.6979 180.978 53.6979" fill="#131CA2"/>
<path d="M201.25 47.0844V56.8187C201.25 57.6422 200.765 58.1044 199.924 58.1044H196.876C196.028 58.1044 195.553 57.6352 195.553 56.8187V38.6124C195.553 37.7912 196.038 37.329 196.876 37.329H199.924C200.775 37.329 201.25 37.7982 201.25 38.6124V39.877C202.62 38.1103 204.523 36.8481 206.988 36.8481C207.274 36.844 207.56 36.8715 207.839 36.9302C208.605 37.0686 208.916 37.6716 208.855 38.4129L208.666 40.738C208.586 41.6014 208.045 41.9228 207.134 41.7797C206.846 41.7429 206.556 41.7233 206.266 41.7211C203.529 41.7211 201.25 43.8678 201.25 47.0961" fill="#131CA2"/>
<path d="M122.474 78.1982C123.814 79.2376 125.22 79.8007 126.915 79.8007C128.879 79.8007 130.055 79.0006 130.055 77.7407C130.055 76.4808 129.148 75.7394 126.379 75.1998C121.727 74.2801 119.414 71.9996 119.414 68.5601C119.414 65.0831 122.493 62.5234 127.143 62.5234C131.378 62.5234 134.064 64.5013 135.143 67.6404C135.434 68.5015 134.918 69.0599 133.989 69.0599H131.245C130.479 69.0599 130.13 68.7009 129.737 68.0604C129.252 67.3214 128.476 66.9225 127.422 66.9225C126.079 66.9225 124.963 67.5794 124.963 68.6399C124.963 69.7403 125.977 70.6412 128.372 71.1198C133.332 72.1005 135.606 74.2989 135.606 77.7994C135.606 81.4618 132.455 84.1997 127.133 84.1997C124.302 84.1997 121.945 83.0267 119.921 80.8001C119.366 80.1995 119.436 79.5801 119.964 79.0006L120.602 78.2968C121.16 77.6774 121.78 77.6563 122.464 78.1959" fill="#131CA2"/>
<path d="M146.946 62.5195C149.942 62.5195 152.359 63.641 154.076 65.4781V64.2792C154.076 63.4603 154.561 62.9981 155.397 62.9981H158.372C159.22 62.9981 159.696 63.4674 159.696 64.2792V91.7294C159.696 92.5482 159.211 93.0081 158.372 93.0081H155.397C154.551 93.0081 154.076 92.5388 154.076 91.7294V81.2396C152.359 83.0767 149.942 84.2005 146.946 84.2005C140.972 84.2005 136.613 79.4167 136.613 73.3589C136.613 67.301 140.977 62.5195 146.946 62.5195ZM148.158 79.3393C151.465 79.3393 154.071 76.7373 154.071 73.3589C154.071 69.9804 151.47 67.3785 148.163 67.3785C144.856 67.3785 142.318 69.9968 142.318 73.3565C142.318 76.7162 144.878 79.3439 148.163 79.3439" fill="#131CA2"/>
<path d="M162.277 75.832V64.2865C162.277 63.4677 162.762 63.0078 163.599 63.0078H166.641C167.49 63.0078 167.965 63.4771 167.965 64.2865V75.2478C167.965 77.5447 169.824 79.3466 172.014 79.3466C174.702 79.3466 176.862 77.3077 176.862 74.0466V64.2865C176.862 63.4677 177.347 63.0078 178.183 63.0078H181.221C182.07 63.0078 182.545 63.4771 182.545 64.2865V82.4459C182.545 83.2647 182.06 83.7269 181.221 83.7269H178.186C177.34 83.7269 176.865 83.2576 176.865 82.4459V81.4253C176.124 82.2976 175.192 82.9997 174.137 83.4809C173.082 83.9622 171.929 84.2104 170.763 84.2078C165.742 84.2078 162.277 80.8458 162.277 75.8273" fill="#131CA2"/>
<path d="M194.486 62.5195C197.48 62.5195 199.902 63.641 201.616 65.4781V64.2792C201.616 63.4603 202.101 62.9981 202.94 62.9981H205.915C206.761 62.9981 207.236 63.4674 207.236 64.2792V82.4362C207.236 83.2574 206.751 83.7172 205.915 83.7172H202.94C202.092 83.7172 201.616 83.248 201.616 82.4362V81.2397C199.902 83.0767 197.48 84.2005 194.486 84.2005C188.515 84.2005 184.156 79.4167 184.156 73.3589C184.156 67.301 188.52 62.5195 194.486 62.5195ZM195.699 79.3393C199.003 79.3393 201.609 76.7373 201.609 73.3589C201.609 69.9804 199.01 67.3785 195.706 67.3785C192.401 67.3785 189.861 69.9968 189.861 73.3565C189.861 76.7162 192.418 79.3439 195.706 79.3439" fill="#131CA2"/>
<path d="M215.933 72.7415V82.4382C215.933 83.2594 215.448 83.7192 214.611 83.7192H211.571C210.725 83.7192 210.25 83.25 210.25 82.4382V64.2812C210.25 63.46 210.735 63.0002 211.571 63.0002H214.611C215.46 63.0002 215.933 63.4694 215.933 64.2812V65.5411C217.298 63.7814 219.198 62.5239 221.659 62.5239C221.942 62.5197 222.225 62.5456 222.503 62.6013C223.271 62.7421 223.579 63.3427 223.516 64.0817L223.332 66.4021C223.249 67.2608 222.711 67.5752 221.802 67.4415C221.519 67.402 221.233 67.3817 220.946 67.3805C218.219 67.3805 215.945 69.5202 215.945 72.7391" fill="#131CA2"/>
<path d="M234.897 79.8179C237.358 79.8179 239.261 79.1398 240.972 77.8377C241.634 77.338 242.274 77.3685 242.851 77.9175L243.865 78.8982C244.466 79.4777 244.509 80.1393 243.906 80.7188C242.723 81.8495 241.318 82.7398 239.774 83.3374C238.23 83.9349 236.579 84.2276 234.916 84.1982C227.602 84.1982 222.746 79.4167 222.746 73.3589C222.746 67.301 227.748 62.5195 234.383 62.5195C240.929 62.5195 245.605 67.2119 245.605 72.9975C245.605 73.2603 245.583 73.5606 245.564 73.8398C245.479 74.6188 244.941 74.9965 244.136 74.9965H228.492C228.989 77.8799 231.466 79.8179 234.897 79.8179V79.8179ZM228.637 71.0807H239.75C239.125 68.6243 237.108 66.9139 234.339 66.9139C233.046 66.9064 231.786 67.312 230.755 68.0679C229.724 68.8238 228.98 69.8878 228.637 71.0948" fill="#131CA2"/>
<path d="M221.491 8.09909V2.95393C221.493 2.70192 221.432 2.45315 221.315 2.22806C221.198 2.00298 221.027 1.808 220.817 1.65914C220.607 1.51029 220.363 1.4118 220.106 1.37178C219.849 1.33176 219.586 1.35134 219.338 1.42892C216.798 2.24332 214.387 3.39704 212.177 4.85668C211.957 5.00409 211.777 5.20126 211.654 5.43104C211.531 5.66083 211.467 5.91628 211.469 6.17523V8.09909C211.469 8.52243 211.642 8.92847 211.951 9.22804C212.261 9.5276 212.68 9.69621 213.117 9.69683H219.838C220.055 9.69714 220.27 9.65604 220.47 9.57589C220.671 9.49573 220.853 9.37809 221.007 9.2297C221.16 9.0813 221.282 8.90506 221.365 8.71106C221.448 8.51706 221.491 8.3091 221.491 8.09909" fill="#00BDFF"/>
<path d="M233.493 8.1014V1.80192C233.491 1.4087 233.34 1.02994 233.069 0.73696C232.798 0.443984 232.425 0.257001 232.022 0.211217C229.67 -0.0704058 227.29 -0.0704058 224.938 0.211217C224.535 0.257046 224.162 0.444115 223.892 0.737145C223.621 1.03017 223.471 1.40891 223.469 1.80192V8.1014C223.469 8.52474 223.642 8.93078 223.951 9.23035C224.261 9.52992 224.68 9.69852 225.117 9.69915H231.838C232.055 9.69945 232.27 9.65837 232.471 9.57825C232.671 9.49812 232.854 9.38051 233.007 9.23215C233.161 9.08378 233.283 8.90757 233.367 8.71355C233.45 8.51954 233.493 8.31153 233.493 8.1014" fill="#00BDFF"/>
<path d="M245.497 8.09909V6.17523C245.499 5.91628 245.435 5.66083 245.312 5.43104C245.188 5.20126 245.009 5.00409 244.789 4.85668C242.579 3.39659 240.168 2.24283 237.627 1.42892C237.38 1.35134 237.116 1.33176 236.859 1.37178C236.602 1.4118 236.359 1.51029 236.148 1.65914C235.938 1.808 235.768 2.00298 235.651 2.22806C235.533 2.45315 235.473 2.70192 235.475 2.95393V8.09909C235.474 8.3088 235.517 8.51651 235.599 8.71034C235.682 8.90418 235.804 9.08033 235.957 9.22872C236.11 9.37712 236.292 9.49484 236.492 9.57517C236.692 9.65549 236.906 9.69683 237.123 9.69683H243.843C244.061 9.69714 244.275 9.65604 244.476 9.57589C244.677 9.49573 244.859 9.37809 245.012 9.2297C245.166 9.0813 245.288 8.90506 245.371 8.71106C245.454 8.51706 245.497 8.3091 245.497 8.09909" fill="#00BDFF"/>
<path d="M207.833 11.6172H205.845C205.577 11.6157 205.313 11.6772 205.075 11.7966C204.837 11.916 204.633 12.0895 204.48 12.3023C202.973 14.4429 201.78 16.7753 200.936 19.2329C200.856 19.473 200.837 19.7279 200.879 19.9766C200.921 20.2254 201.023 20.461 201.178 20.6642C201.332 20.8674 201.533 21.0324 201.766 21.1457C201.999 21.259 202.256 21.3175 202.516 21.3163H207.833C208.05 21.3166 208.265 21.2755 208.465 21.1953C208.665 21.1151 208.848 20.9974 209.001 20.849C209.154 20.7006 209.276 20.5243 209.359 20.3304C209.442 20.1364 209.484 19.9285 209.484 19.7186V13.215C209.483 12.7914 209.309 12.3854 209 12.0859C208.69 11.7864 208.27 11.6178 207.833 11.6172" fill="#00BDFF"/>
<path d="M213.12 11.6172H219.84C220.278 11.6172 220.698 11.7855 221.007 12.0852C221.317 12.3848 221.491 12.7912 221.491 13.2149V19.7185C221.491 19.9284 221.449 20.1363 221.366 20.3303C221.283 20.5243 221.162 20.7006 221.008 20.849C220.855 20.9974 220.673 21.1151 220.472 21.1953C220.272 21.2755 220.057 21.3166 219.84 21.3163H213.12C212.903 21.3166 212.688 21.2755 212.488 21.1953C212.287 21.1151 212.105 20.9974 211.952 20.849C211.798 20.7006 211.677 20.5243 211.594 20.3303C211.511 20.1363 211.468 19.9284 211.469 19.7185V13.2149C211.469 12.7914 211.644 12.3853 211.953 12.0858C212.262 11.7863 212.682 11.6178 213.12 11.6172" fill="#00BDFF"/>
<path d="M225.12 11.6172H231.852C232.29 11.6172 232.71 11.7855 233.02 12.0852C233.329 12.3848 233.503 12.7912 233.503 13.2149V19.7185C233.503 19.9284 233.461 20.1363 233.378 20.3303C233.295 20.5243 233.174 20.7006 233.02 20.849C232.867 20.9974 232.685 21.1151 232.484 21.1953C232.284 21.2755 232.069 21.3166 231.852 21.3163H225.12C224.903 21.3166 224.688 21.2755 224.488 21.1953C224.287 21.1151 224.105 20.9974 223.952 20.849C223.798 20.7006 223.677 20.5243 223.594 20.3303C223.511 20.1363 223.468 19.9284 223.469 19.7185V13.2149C223.469 12.7914 223.644 12.3853 223.953 12.0858C224.263 11.7863 224.682 11.6178 225.12 11.6172" fill="#00BDFF"/>
<path d="M207.833 23.2344H201.323C200.917 23.2368 200.525 23.3828 200.222 23.6451C199.919 23.9074 199.725 24.2677 199.677 24.6585C199.389 26.9344 199.389 29.2358 199.677 31.5117C199.725 31.9022 199.919 32.2623 200.222 32.5242C200.525 32.7861 200.917 32.9316 201.323 32.9335H207.833C208.05 32.9338 208.264 32.8926 208.465 32.8125C208.665 32.7323 208.847 32.6146 209.001 32.4662C209.154 32.3178 209.276 32.1415 209.359 31.9475C209.442 31.7535 209.484 31.5456 209.484 31.3357V24.8321C209.484 24.4084 209.31 24.002 209 23.7023C208.691 23.4027 208.271 23.2344 207.833 23.2344" fill="#00BDFF"/>
<path d="M213.12 23.2344H219.84C220.057 23.2341 220.272 23.2752 220.472 23.3554C220.673 23.4356 220.855 23.5532 221.008 23.7017C221.162 23.8501 221.283 24.0263 221.366 24.2203C221.449 24.4143 221.491 24.6222 221.491 24.8321V31.3357C221.491 31.5456 221.449 31.7535 221.366 31.9475C221.283 32.1415 221.162 32.3178 221.008 32.4662C220.855 32.6146 220.673 32.7323 220.472 32.8125C220.272 32.8927 220.057 32.9338 219.84 32.9335H213.12C212.903 32.9338 212.688 32.8927 212.488 32.8125C212.287 32.7323 212.105 32.6146 211.952 32.4662C211.798 32.3178 211.677 32.1415 211.594 31.9475C211.511 31.7535 211.468 31.5456 211.469 31.3357V24.8321C211.469 24.4084 211.643 24.002 211.952 23.7023C212.262 23.4027 212.682 23.2344 213.12 23.2344" fill="#00BDFF"/>
<path d="M225.12 23.2344H231.852C232.069 23.2341 232.284 23.2752 232.484 23.3554C232.685 23.4356 232.867 23.5532 233.02 23.7017C233.174 23.8501 233.295 24.0263 233.378 24.2203C233.461 24.4143 233.503 24.6222 233.503 24.8321V31.3357C233.503 31.5456 233.461 31.7535 233.378 31.9475C233.295 32.1415 233.174 32.3178 233.02 32.4662C232.867 32.6146 232.685 32.7323 232.484 32.8125C232.284 32.8927 232.069 32.9338 231.852 32.9335H225.12C224.903 32.9338 224.688 32.8927 224.488 32.8125C224.287 32.7323 224.105 32.6146 223.952 32.4662C223.798 32.3178 223.677 32.1415 223.594 31.9475C223.511 31.7535 223.468 31.5456 223.469 31.3357V24.8321C223.469 24.4084 223.643 24.002 223.952 23.7023C224.262 23.4027 224.682 23.2344 225.12 23.2344" fill="#00BDFF"/>
<path d="M237.126 23.2344H243.846C244.063 23.2341 244.278 23.2752 244.478 23.3553C244.679 23.4355 244.861 23.5531 245.015 23.7015C245.168 23.8499 245.29 24.0261 245.373 24.2201C245.457 24.4141 245.499 24.6221 245.499 24.8321V31.3357C245.499 31.5457 245.457 31.7537 245.373 31.9477C245.29 32.1417 245.168 32.3179 245.015 32.4663C244.861 32.6147 244.679 32.7324 244.478 32.8125C244.278 32.8927 244.063 32.9338 243.846 32.9335H237.126C236.909 32.9338 236.694 32.8927 236.493 32.8125C236.293 32.7323 236.111 32.6146 235.957 32.4662C235.804 32.3178 235.682 32.1415 235.6 31.9475C235.517 31.7535 235.474 31.5456 235.475 31.3357V24.8321C235.475 24.4084 235.649 24.002 235.958 23.7023C236.268 23.4027 236.688 23.2344 237.126 23.2344" fill="#00BDFF"/>
<path d="M249.133 32.9335H255.64C256.047 32.9316 256.44 32.7858 256.743 32.5235C257.047 32.2612 257.241 31.9005 257.289 31.5093C257.577 29.2335 257.577 26.932 257.289 24.6562C257.24 24.2654 257.046 23.9053 256.743 23.6435C256.439 23.3816 256.047 23.2361 255.64 23.2344H249.133C248.696 23.2344 248.276 23.4027 247.966 23.7023C247.656 24.002 247.482 24.4084 247.482 24.8321V31.3357C247.482 31.7595 247.656 32.1659 247.966 32.4655C248.276 32.7651 248.696 32.9335 249.133 32.9335Z" fill="#00BDFF"/>
<path d="M225.12 34.8516H231.852C232.069 34.8513 232.284 34.8924 232.484 34.9726C232.685 35.0527 232.867 35.1704 233.02 35.3188C233.174 35.4673 233.295 35.6435 233.378 35.8375C233.461 36.0315 233.503 36.2394 233.503 36.4493V42.9529C233.503 43.1628 233.461 43.3707 233.378 43.5647C233.295 43.7587 233.174 43.9349 233.02 44.0834C232.867 44.2318 232.685 44.3495 232.484 44.4297C232.284 44.5098 232.069 44.551 231.852 44.5507H225.12C224.903 44.551 224.688 44.5098 224.488 44.4297C224.287 44.3495 224.105 44.2318 223.952 44.0834C223.798 43.9349 223.677 43.7587 223.594 43.5647C223.511 43.3707 223.468 43.1628 223.469 42.9529V36.4493C223.469 36.0256 223.643 35.6192 223.952 35.3195C224.262 35.0199 224.682 34.8516 225.12 34.8516" fill="#00BDFF"/>
<path d="M237.126 34.8516H243.846C244.063 34.8513 244.278 34.8924 244.478 34.9725C244.679 35.0527 244.861 35.1703 245.015 35.3187C245.168 35.4671 245.29 35.6433 245.373 35.8373C245.457 36.0313 245.499 36.2393 245.499 36.4493V42.9529C245.499 43.1629 245.457 43.3709 245.373 43.5649C245.29 43.7589 245.168 43.9351 245.015 44.0835C244.861 44.2319 244.679 44.3495 244.478 44.4297C244.278 44.5099 244.063 44.551 243.846 44.5507H237.126C236.909 44.551 236.694 44.5098 236.493 44.4297C236.293 44.3495 236.111 44.2318 235.957 44.0834C235.804 43.9349 235.682 43.7587 235.6 43.5647C235.517 43.3707 235.474 43.1628 235.475 42.9529V36.4493C235.475 36.0256 235.649 35.6192 235.958 35.3195C236.268 35.0199 236.688 34.8516 237.126 34.8516" fill="#00BDFF"/>
<path d="M249.133 44.553H251.121C251.389 44.5545 251.653 44.4927 251.891 44.3729C252.128 44.2531 252.332 44.0789 252.484 43.8656C253.991 41.725 255.183 39.3926 256.028 36.935C256.108 36.695 256.128 36.4402 256.086 36.1914C256.044 35.9426 255.942 35.707 255.788 35.5037C255.634 35.3004 255.433 35.1354 255.2 35.022C254.967 34.9087 254.71 34.8503 254.45 34.8516H249.133C248.696 34.8516 248.276 35.0196 247.967 35.3187C247.657 35.6179 247.483 36.0236 247.482 36.447V42.9506C247.482 43.1607 247.525 43.3688 247.607 43.5631C247.69 43.7573 247.812 43.9339 247.965 44.0827C248.118 44.2315 248.3 44.3496 248.501 44.4303C248.701 44.511 248.916 44.5527 249.133 44.553" fill="#00BDFF"/>
<path d="M211.469 48.0665V49.9927C211.466 50.2512 211.53 50.5062 211.653 50.7356C211.776 50.9651 211.955 51.1619 212.174 51.3089C214.387 52.7675 216.798 53.9219 219.338 54.739C219.586 54.8156 219.849 54.8344 220.105 54.794C220.362 54.7535 220.605 54.6549 220.815 54.5062C221.024 54.3575 221.195 54.1629 221.312 53.9383C221.429 53.7138 221.49 53.4656 221.489 53.214V48.0665C221.489 47.8568 221.447 47.6491 221.364 47.4552C221.281 47.2614 221.16 47.0853 221.007 46.9369C220.854 46.7885 220.672 46.6707 220.472 46.5904C220.271 46.5101 220.057 46.4687 219.84 46.4688H213.12C212.682 46.4688 212.262 46.6371 211.952 46.9367C211.643 47.2364 211.469 47.6427 211.469 48.0665" fill="#00BDFF"/>
<path d="M223.469 48.0665V54.3636C223.471 54.7574 223.622 55.1367 223.893 55.4305C224.164 55.7242 224.536 55.9122 224.94 55.959C227.292 56.2381 229.67 56.2381 232.022 55.959C232.426 55.9121 232.798 55.7241 233.068 55.4303C233.339 55.1365 233.489 54.7572 233.491 54.3636V48.0665C233.491 47.8566 233.449 47.6487 233.366 47.4547C233.283 47.2607 233.162 47.0845 233.008 46.936C232.855 46.7876 232.673 46.6699 232.472 46.5897C232.272 46.5096 232.057 46.4684 231.84 46.4688H225.12C224.682 46.4688 224.262 46.6371 223.952 46.9367C223.643 47.2364 223.469 47.6428 223.469 48.0665" fill="#00BDFF"/>
<path d="M235.475 48.0665V53.214C235.474 53.4658 235.534 53.7143 235.652 53.9391C235.769 54.164 235.939 54.3587 236.149 54.5075C236.359 54.6562 236.603 54.7547 236.86 54.795C237.117 54.8352 237.38 54.8161 237.627 54.739C240.167 53.9223 242.578 52.7679 244.789 51.3089C245.009 51.1619 245.188 50.9651 245.311 50.7356C245.434 50.5062 245.497 50.2512 245.494 49.9927V48.0665C245.495 47.8568 245.452 47.6491 245.37 47.4552C245.287 47.2614 245.166 47.0853 245.012 46.9369C244.859 46.7885 244.678 46.6707 244.477 46.5904C244.277 46.5101 244.063 46.4687 243.846 46.4688H237.126C236.688 46.4688 236.268 46.6371 235.958 46.9367C235.649 47.2364 235.475 47.6427 235.475 48.0665" fill="#00BDFF"/>
</g>
<defs>
<clipPath id="clip0_2236_1229">
<rect width="138.091" height="93" fill="white" transform="translate(119.414)"/>
</clipPath>
</defs>
</svg>
