<svg width="78" height="74" viewBox="0 0 78 74" fill="none" xmlns="http://www.w3.org/2000/svg">
<g clip-path="url(#clip0_719_1010)">
<path d="M57.5165 27.3963C57.5165 22.8401 57.5022 18.2819 57.5307 13.7256C57.5347 13.0248 57.3905 12.7526 56.6267 12.7892C55.3734 12.8481 54.959 12.389 54.959 11.1235C54.957 7.95268 54.959 4.78181 54.9651 1.61095C54.9692 0.438888 55.3958 0.00622078 56.5455 0.00622078C63.1818 0.00215818 69.816 0.00215818 76.4523 0.00622078C77.5228 0.00622078 77.9879 0.475452 77.992 1.58251C78.0042 4.77978 78.0021 7.97908 78.0001 11.1764C78.0001 12.3525 77.5288 12.8522 76.3507 12.7994C75.6377 12.7669 75.4224 12.9456 75.4244 13.7013C75.4508 22.7873 75.4711 31.8753 75.4244 40.9634C75.3635 53.0964 67.1428 63.2671 55.3084 65.9443C43.7564 68.5566 31.6539 62.5683 26.6671 51.7801C25.1822 48.5706 24.3575 45.2068 24.2823 41.6723C24.2701 41.1482 24.1747 40.9309 23.5856 40.939C22.0032 40.9613 21.6985 40.616 21.6985 39.0133C21.6985 36.0029 21.6985 32.9905 21.6944 29.9801C21.6944 28.5501 22.0662 28.1357 23.4657 28.1743C24.0629 28.1905 24.2864 28.0707 24.2722 27.4024C24.2112 24.4855 22.5923 22.9335 19.6753 23.0371C19.2528 23.0514 19.0964 23.1773 19.1391 23.5896C19.1614 23.8009 19.1492 24.0162 19.1411 24.2295C19.1106 25.0847 18.6536 25.5986 17.8106 25.6027C14.4264 25.6169 11.0423 25.6169 7.65813 25.5945C6.81108 25.5884 6.352 25.0806 6.352 24.2072C6.34591 17.4653 6.34388 10.7234 6.35403 3.98148C6.35403 3.02067 6.86186 2.57379 7.8897 2.57176C11.1134 2.56769 14.3391 2.57176 17.5628 2.57785C18.7023 2.57988 19.1817 3.03083 19.1228 4.19274C19.0822 4.9626 19.2914 5.15557 20.0755 5.14745C31.1237 5.04385 40.2524 12.8298 41.9526 23.7806C42.1415 24.9912 42.235 26.2182 42.1659 27.4451C42.1354 27.9915 42.2797 28.1804 42.8586 28.1763C44.4146 28.1641 44.7274 28.5074 44.7294 30.0451C44.7314 33.1368 44.7375 36.2284 44.7335 39.318C44.7335 40.5145 44.2947 40.9431 43.0922 40.9553C42.4137 40.962 42.1293 41.3067 42.239 41.9892C42.889 46.0762 46.4032 48.918 50.4252 48.6112C54.4431 48.3045 57.5124 44.9508 57.5205 40.8334C57.5307 36.3564 57.5225 31.8794 57.5225 27.4024H57.5165V27.3963ZM72.869 27.8412H72.8731C72.8731 23.0981 72.8589 18.3529 72.8894 13.6099C72.8934 12.9314 72.6944 12.7831 72.0443 12.7892C68.3392 12.8217 64.6341 12.8298 60.9311 12.7872C60.1957 12.7791 60.0678 13.0025 60.0698 13.6789C60.0921 22.767 60.1003 31.855 60.084 40.9451C60.0739 46.4296 55.6944 51.0102 50.348 51.1849C44.6949 51.3677 40.0148 47.2117 39.639 41.6276C39.6004 41.0446 39.4033 40.9431 38.8833 40.9451C35.099 40.9654 31.3147 40.9674 27.5304 40.9451C26.9697 40.941 26.7971 41.0893 26.8275 41.6581C26.9291 43.663 27.2277 45.6273 27.7924 47.555C30.947 58.3168 41.9831 65.4223 52.9867 63.7668C64.5691 62.0239 72.8061 52.5174 72.867 40.7968C72.8894 36.4783 72.8711 32.1617 72.8711 27.8432L72.869 27.8412ZM19.1451 14.0933H19.1492C19.1492 16.0109 19.1634 17.9264 19.1391 19.8439C19.133 20.3233 19.2548 20.5122 19.7606 20.4818C20.5589 20.435 21.3552 20.4919 22.1332 20.7133C24.9019 21.4974 26.7544 23.9268 26.8174 26.8661C26.835 27.7193 27.2764 28.1459 28.1418 28.1459C31.7088 28.1459 35.2778 28.1377 38.8447 28.1601C39.4054 28.1641 39.6105 28.0524 39.6247 27.4268C39.8726 16.3663 30.8556 7.37173 19.8134 7.67439C19.3056 7.68861 19.1269 7.81049 19.133 8.34269C19.1614 10.2582 19.1451 12.1758 19.1451 14.0933ZM66.4745 2.56566V2.57176C63.7058 2.57176 60.9392 2.57988 58.1705 2.56363C57.7236 2.5616 57.5043 2.62051 57.5104 3.15677C57.5408 5.33839 57.5327 7.52204 57.5144 9.70366C57.5104 10.1201 57.6363 10.2501 58.0568 10.2501C63.6449 10.2379 69.235 10.2359 74.8232 10.2541C75.331 10.2541 75.4468 10.0916 75.4407 9.61428C75.4183 7.51189 75.4082 5.40949 75.4447 3.30709C75.4549 2.71395 75.2985 2.54332 74.6952 2.55144C71.955 2.58394 69.2127 2.56566 66.4725 2.56566H66.4745ZM16.5755 14.0628C16.5755 14.0628 16.5776 14.0628 16.5796 14.0628C16.5796 11.2921 16.5695 8.52144 16.5898 5.75278C16.5938 5.27339 16.476 5.10885 15.9723 5.11495C13.8414 5.14135 11.7106 5.14948 9.57974 5.11292C8.98254 5.10276 8.89519 5.33027 8.89722 5.85231C8.91551 11.3125 8.91957 16.7746 8.90129 22.2348C8.90129 22.836 9.0252 23.0635 9.68131 23.0493C11.7309 23.0046 13.7845 23.0087 15.8341 23.0473C16.4293 23.0574 16.5979 22.901 16.5898 22.2977C16.5552 19.5555 16.5755 16.8112 16.5755 14.0669V14.0628ZM33.1794 38.3836V38.3877C35.9501 38.3877 38.7208 38.3775 41.4915 38.3978C41.9871 38.4019 42.1882 38.3003 42.1801 37.7478C42.1476 35.617 42.1557 33.4862 42.1761 31.3553C42.1801 30.8962 42.0989 30.7012 41.5728 30.7033C36.005 30.7236 30.4372 30.7256 24.8694 30.7094C24.3554 30.7094 24.2498 30.8861 24.2559 31.3553C24.2762 33.4597 24.2925 35.5642 24.2478 37.6686C24.2336 38.3064 24.4672 38.4019 25.0278 38.3978C27.7457 38.3714 30.4615 38.3857 33.1794 38.3857V38.3836Z" fill="#101F9D"/>
<path d="M22.8237 67.8435C32.2395 67.8435 39.8725 60.2105 39.8725 50.7948C39.8725 41.379 32.2395 33.746 22.8237 33.746C13.408 33.746 5.77502 41.379 5.77502 50.7948C5.77502 60.2105 13.408 67.8435 22.8237 67.8435Z" fill="#1ABDFE"/>
<path d="M31.1603 34.3798C33.6974 35.6331 35.8282 37.4044 37.5609 39.6388C39.3891 41.9992 40.5287 44.6846 41.0446 47.6096C41.392 49.5719 41.3513 51.5504 41.0913 53.5451C40.7054 56.5047 39.5618 59.121 37.8819 61.5484C36.3117 63.8194 34.2621 65.5237 31.8976 66.9294C29.9679 68.077 27.8777 68.7799 25.7184 69.1414C23.157 69.5721 20.567 69.4604 18.0218 68.7413C14.8245 67.8394 12.0356 66.2367 9.71785 63.8905C7.15231 61.2925 5.43383 58.1826 4.73913 54.5729C4.49131 53.2892 4.25161 51.9648 4.2963 50.6688C4.43443 46.6631 5.62884 43.0026 8.06843 39.7526C9.89864 37.315 12.1554 35.4462 14.8916 34.1563C16.7421 33.2849 18.6739 32.6511 20.7458 32.5353C22.7913 32.5353 26.8742 32.9294 31.1562 34.3798H31.1603Z" fill="#101F9D"/>
<path d="M30.0227 36.6306C32.377 37.955 34.4733 39.5881 35.9622 41.8449C38.8345 46.198 39.4296 50.9289 37.8798 55.8893C37.0124 58.6641 35.4056 60.9757 33.1732 62.877C30.5447 65.1155 27.51 66.3851 24.1177 66.7324C21.1479 67.0371 18.2919 66.4176 15.6411 65.0627C13.429 63.9333 11.5764 62.3306 10.0834 60.3318C7.96274 57.492 6.96943 54.2602 6.88005 50.7603C6.85162 49.639 7.071 48.4893 7.32288 47.3863C8.17399 43.6589 10.1058 40.5591 13.1324 38.2332C16.0067 36.0232 19.3198 34.9588 22.9639 34.975C22.9639 34.975 26.671 35.4504 30.0227 36.6306Z" fill="#101F9D"/>
<path d="M45.4443 50.7949C45.4443 52.5479 39.2224 53.46 38.7918 55.0748C38.3611 56.6897 43.2627 60.6447 42.4156 62.1072C41.5686 63.5698 35.7164 61.2744 34.5098 62.4789C33.3032 63.6835 35.623 69.5255 34.1381 70.3848C32.6532 71.244 28.7775 66.314 27.1057 66.7609C25.4339 67.2078 24.5767 73.4134 22.8257 73.4134C21.0748 73.4134 20.1607 67.1916 18.5458 66.7609C16.9309 66.3303 12.976 71.2318 11.5134 70.3848C10.0509 69.5377 12.3463 63.6855 11.1417 62.4789C9.93713 61.2723 4.0951 63.5921 3.23586 62.1072C2.38881 60.6426 7.30659 56.7466 6.8597 55.0748C6.41282 53.4031 0.203125 52.5459 0.203125 50.7949C0.203125 49.0439 6.42501 48.1298 6.85564 46.5149C7.28628 44.9 2.38474 40.9451 3.2318 39.4826C4.07885 38.02 9.93103 40.3154 11.1376 39.1108C12.3442 37.9063 10.0245 32.0642 11.5094 31.205C12.9739 30.3579 16.87 35.2757 18.5417 34.8288C20.2135 34.382 21.0707 28.1763 22.8217 28.1763C24.5727 28.1763 25.4867 34.3982 27.1016 34.8288C28.7165 35.2595 32.6715 30.3579 34.134 31.205C35.5965 32.0521 33.3012 37.9042 34.5057 39.1108C35.7103 40.3174 41.5523 37.9977 42.4116 39.4826C43.2708 40.9674 38.3408 44.8432 38.7877 46.5149C39.2346 48.1867 45.4402 49.0439 45.4402 50.7949H45.4443Z" fill="#1ABDFE"/>
<path d="M45.4443 50.7949C45.4443 52.5479 39.2224 53.46 38.7918 55.0748C38.3611 56.6897 43.2627 60.6447 42.4156 62.1072C41.5686 63.5698 35.7164 61.2744 34.5098 62.4789C33.3032 63.6835 35.623 69.5255 34.1381 70.3848C32.6532 71.244 28.7775 66.314 27.1057 66.7609C25.4339 67.2078 24.5767 73.4134 22.8257 73.4134C21.0748 73.4134 20.1607 67.1916 18.5458 66.7609C16.9309 66.3303 12.976 71.2318 11.5134 70.3848C10.0509 69.5377 12.3463 63.6855 11.1417 62.4789C9.93713 61.2723 4.0951 63.5921 3.23586 62.1072C2.38881 60.6426 7.30659 56.7466 6.8597 55.0748C6.41282 53.4031 0.203125 52.5459 0.203125 50.7949C0.203125 49.0439 6.42501 48.1298 6.85564 46.5149C7.28628 44.9 2.38474 40.9451 3.2318 39.4826C4.07885 38.02 9.93103 40.3154 11.1376 39.1108C12.3442 37.9063 10.0245 32.0642 11.5094 31.205C12.9739 30.3579 16.87 35.2757 18.5417 34.8288C20.2135 34.382 21.0707 28.1763 22.8217 28.1763C24.5727 28.1763 25.4867 34.3982 27.1016 34.8288C28.7165 35.2595 32.6715 30.3579 34.134 31.205C35.5965 32.0521 33.3012 37.9042 34.5057 39.1108C35.7103 40.3174 41.5523 37.9977 42.4116 39.4826C43.2708 40.9674 38.3408 44.8432 38.7877 46.5149C39.2346 48.1867 45.4402 49.0439 45.4402 50.7949H45.4443Z" stroke="white" stroke-width="0.406261" stroke-miterlimit="10"/>
<path d="M16.037 48.9971C16.5449 48.9382 16.9572 49.1515 17.333 49.5395C18.3954 50.6323 19.4902 51.6967 20.5567 52.7855C20.7882 53.0232 20.9325 53.0597 21.1844 52.8038C23.5772 50.3906 25.9823 47.9896 28.3792 45.5825C28.9094 45.0503 29.5574 44.9264 30.2866 45.2331C30.9123 45.4972 31.414 46.1655 31.3713 46.7769C31.3409 47.2096 31.2352 47.626 30.8919 47.9672C27.9466 50.8964 25.0093 53.8357 22.0761 56.777C21.4708 57.3844 20.3901 57.5083 19.6731 56.7831C18.0622 55.152 16.4433 53.5269 14.8142 51.9141C14.221 51.327 14.1865 50.6608 14.3612 50.1184C14.5928 49.3953 15.1209 48.9077 16.037 48.9951V48.9971Z" fill="white"/>
</g>
<defs>
<clipPath id="clip0_719_1010">
<rect width="78" height="73.6164" fill="white"/>
</clipPath>
</defs>
</svg>
